<svg width="48" height="48" viewBox="0 0 48 48" fill="none" xmlns="http://www.w3.org/2000/svg">
<g clip-path="url(#clip0_24_22)">
<mask id="path-1-outside-1_24_22" maskUnits="userSpaceOnUse" x="-2" y="9" width="52" height="31" fill="black">
<rect fill="white" x="-2" y="9" width="52" height="31"/>
<path d="M10.56 38.33C9.44 38.33 8.45 38.11 7.59 37.67C6.75 37.23 6.11 36.61 5.67 35.81C5.23 35.03 5.04 34.09 5.1 32.99L5.4 28.43C5.46 27.61 5.29 26.99 4.89 26.57C4.51 26.15 3.86 25.94 2.94 25.94H-0.63V22.49H2.94C3.86 22.49 4.51 22.28 4.89 21.86C5.29 21.44 5.46 20.83 5.4 20.03L5.1 15.32C5.04 14.24 5.23 13.31 5.67 12.53C6.11 11.75 6.75 11.15 7.59 10.73C8.45 10.31 9.44 10.1 10.56 10.1H12.63V13.55H11.1C10.38 13.55 9.81 13.72 9.39 14.06C8.99 14.4 8.81 14.94 8.85 15.68L9.15 20.36C9.23 21.54 8.88 22.49 8.1 23.21C7.32 23.93 6.23 24.29 4.83 24.29V24.08C6.21 24.08 7.29 24.45 8.07 25.19C8.87 25.91 9.23 26.87 9.15 28.07L8.85 32.75C8.83 33.41 9.02 33.93 9.42 34.31C9.84 34.67 10.4 34.85 11.1 34.85H12.63V38.33H10.56ZM35.3466 38.33V34.85H36.8766C37.5766 34.85 38.1366 34.67 38.5566 34.31C38.9766 33.93 39.1666 33.41 39.1266 32.75L38.8266 28.07C38.7466 26.87 39.0966 25.91 39.8766 25.19C40.6766 24.45 41.7666 24.08 43.1466 24.08V24.29C41.7666 24.29 40.6766 23.93 39.8766 23.21C39.0966 22.49 38.7466 21.54 38.8266 20.36L39.1266 15.68C39.1666 14.94 38.9766 14.4 38.5566 14.06C38.1566 13.72 37.5966 13.55 36.8766 13.55H35.3466V10.1H37.4166C38.5366 10.1 39.5166 10.31 40.3566 10.73C41.2166 11.15 41.8666 11.75 42.3066 12.53C42.7466 13.31 42.9366 14.24 42.8766 15.32L42.5766 20.03C42.5166 20.83 42.6866 21.44 43.0866 21.86C43.4866 22.28 44.1366 22.49 45.0366 22.49H48.6066V25.94H45.0366C44.1366 25.94 43.4866 26.15 43.0866 26.57C42.6866 26.99 42.5166 27.61 42.5766 28.43L42.8766 32.99C42.9366 34.09 42.7466 35.03 42.3066 35.81C41.8666 36.61 41.2166 37.23 40.3566 37.67C39.5166 38.11 38.5366 38.33 37.4166 38.33H35.3466Z"/>
</mask>
<path d="M10.56 38.33C9.44 38.33 8.45 38.11 7.59 37.67C6.75 37.23 6.11 36.61 5.67 35.81C5.23 35.03 5.04 34.09 5.1 32.99L5.4 28.43C5.46 27.61 5.29 26.99 4.89 26.57C4.51 26.15 3.86 25.94 2.94 25.94H-0.63V22.49H2.94C3.86 22.49 4.51 22.28 4.89 21.86C5.29 21.44 5.46 20.83 5.4 20.03L5.1 15.32C5.04 14.24 5.23 13.31 5.67 12.53C6.11 11.75 6.75 11.15 7.59 10.73C8.45 10.31 9.44 10.1 10.56 10.1H12.63V13.55H11.1C10.38 13.55 9.81 13.72 9.39 14.06C8.99 14.4 8.81 14.94 8.85 15.68L9.15 20.36C9.23 21.54 8.88 22.49 8.1 23.21C7.32 23.93 6.23 24.29 4.83 24.29V24.08C6.21 24.08 7.29 24.45 8.07 25.19C8.87 25.91 9.23 26.87 9.15 28.07L8.85 32.75C8.83 33.41 9.02 33.93 9.42 34.31C9.84 34.67 10.4 34.85 11.1 34.85H12.63V38.33H10.56ZM35.3466 38.33V34.85H36.8766C37.5766 34.85 38.1366 34.67 38.5566 34.31C38.9766 33.93 39.1666 33.41 39.1266 32.75L38.8266 28.07C38.7466 26.87 39.0966 25.91 39.8766 25.19C40.6766 24.45 41.7666 24.08 43.1466 24.08V24.29C41.7666 24.29 40.6766 23.93 39.8766 23.21C39.0966 22.49 38.7466 21.54 38.8266 20.36L39.1266 15.68C39.1666 14.94 38.9766 14.4 38.5566 14.06C38.1566 13.72 37.5966 13.55 36.8766 13.55H35.3466V10.1H37.4166C38.5366 10.1 39.5166 10.31 40.3566 10.73C41.2166 11.15 41.8666 11.75 42.3066 12.53C42.7466 13.31 42.9366 14.24 42.8766 15.32L42.5766 20.03C42.5166 20.83 42.6866 21.44 43.0866 21.86C43.4866 22.28 44.1366 22.49 45.0366 22.49H48.6066V25.94H45.0366C44.1366 25.94 43.4866 26.15 43.0866 26.57C42.6866 26.99 42.5166 27.61 42.5766 28.43L42.8766 32.99C42.9366 34.09 42.7466 35.03 42.3066 35.81C41.8666 36.61 41.2166 37.23 40.3566 37.67C39.5166 38.11 38.5366 38.33 37.4166 38.33H35.3466Z" fill="white"/>
<path d="M7.59 37.67L7.12597 38.5559L7.13452 38.5602L7.59 37.67ZM5.67 35.81L6.54627 35.3281L6.54098 35.3187L5.67 35.81ZM5.1 32.99L4.10209 32.9243L4.10148 32.9355L5.1 32.99ZM5.4 28.43L4.40264 28.357L4.40216 28.3644L5.4 28.43ZM4.89 26.57L4.14846 27.2409L4.15704 27.2504L4.16586 27.2597L4.89 26.57ZM-0.63 25.94H-1.63V26.94H-0.63V25.94ZM-0.63 22.49V21.49H-1.63V22.49H-0.63ZM4.89 21.86L4.16586 21.1703L4.15704 21.1796L4.14846 21.1891L4.89 21.86ZM5.4 20.03L4.40196 20.0936L4.4028 20.1048L5.4 20.03ZM5.1 15.32L4.10151 15.3755L4.10202 15.3836L5.1 15.32ZM5.67 12.53L6.54098 13.0213V13.0213L5.67 12.53ZM7.59 10.73L7.15115 9.83139L7.14279 9.83557L7.59 10.73ZM12.63 10.1H13.63V9.1H12.63V10.1ZM12.63 13.55V14.55H13.63V13.55H12.63ZM9.39 14.06L8.7608 13.2828L8.75149 13.2903L8.74235 13.2981L9.39 14.06ZM8.85 15.68L7.85141 15.734L7.85205 15.744L8.85 15.68ZM9.15 20.36L8.15204 20.424L8.15229 20.4276L9.15 20.36ZM8.1 23.21L8.77828 23.9448V23.9448L8.1 23.21ZM4.83 24.29H3.83V25.29H4.83V24.29ZM4.83 24.08V23.08H3.83V24.08H4.83ZM8.07 25.19L7.38174 25.9155L7.39127 25.9245L7.40104 25.9333L8.07 25.19ZM9.15 28.07L8.15221 28.0035L8.15205 28.006L9.15 28.07ZM8.85 32.75L7.85205 32.686L7.85097 32.7029L7.85046 32.7197L8.85 32.75ZM9.42 34.31L8.73125 35.035L8.74979 35.0526L8.76921 35.0693L9.42 34.31ZM12.63 34.85H13.63V33.85H12.63V34.85ZM12.63 38.33V39.33H13.63V38.33H12.63ZM10.56 38.33V37.33C9.57308 37.33 8.74357 37.1369 8.04548 36.7798L7.59 37.67L7.13452 38.5602C8.15643 39.0831 9.30692 39.33 10.56 39.33V38.33ZM7.59 37.67L8.05401 36.7842C7.38101 36.4316 6.8877 35.949 6.54622 35.3281L5.67 35.81L4.79378 36.2919C5.3323 37.271 6.11899 38.0284 7.12599 38.5558L7.59 37.67ZM5.67 35.81L6.54098 35.3187C6.21414 34.7393 6.0465 33.998 6.09852 33.0445L5.1 32.99L4.10148 32.9355C4.0335 34.182 4.24586 35.3207 4.79902 36.3013L5.67 35.81ZM5.1 32.99L6.09784 33.0556L6.39784 28.4956L5.4 28.43L4.40216 28.3644L4.10216 32.9244L5.1 32.99ZM5.4 28.43L6.39733 28.503C6.4691 27.5221 6.27882 26.5783 5.61414 25.8803L4.89 26.57L4.16586 27.2597C4.30118 27.4017 4.4509 27.6979 4.40267 28.357L5.4 28.43ZM4.89 26.57L5.63154 25.8991C4.97139 25.1694 3.97125 24.94 2.94 24.94V25.94V26.94C3.74875 26.94 4.04861 27.1306 4.14846 27.2409L4.89 26.57ZM2.94 25.94V24.94H-0.63V25.94V26.94H2.94V25.94ZM-0.63 25.94H0.37V22.49H-0.63H-1.63V25.94H-0.63ZM-0.63 22.49V23.49H2.94V22.49V21.49H-0.63V22.49ZM2.94 22.49V23.49C3.97125 23.49 4.97139 23.2605 5.63154 22.5309L4.89 21.86L4.14846 21.1891C4.04861 21.2994 3.74875 21.49 2.94 21.49V22.49ZM4.89 21.86L5.61414 22.5497C6.27505 21.8557 6.46995 20.9252 6.3972 19.9552L5.4 20.03L4.4028 20.1048C4.45005 20.7348 4.30495 21.0243 4.16586 21.1703L4.89 21.86ZM5.4 20.03L6.39798 19.9664L6.09798 15.2564L5.1 15.32L4.10202 15.3836L4.40202 20.0936L5.4 20.03ZM5.1 15.32L6.09846 15.2645C6.04683 14.3353 6.21272 13.6032 6.54098 13.0213L5.67 12.53L4.79902 12.0387C4.24728 13.0168 4.03317 14.1447 4.10154 15.3755L5.1 15.32ZM5.67 12.53L6.54098 13.0213C6.87813 12.4236 7.36631 11.9599 8.03721 11.6244L7.59 10.73L7.14279 9.83557C6.13369 10.3401 5.34187 11.0764 4.79902 12.0387L5.67 12.53ZM7.59 10.73L8.02884 11.6286C8.73076 11.2858 9.56631 11.1 10.56 11.1V10.1V9.1C9.31369 9.1 8.16924 9.33423 7.15117 9.83143L7.59 10.73ZM10.56 10.1V11.1H12.63V10.1V9.1H10.56V10.1ZM12.63 10.1H11.63V13.55H12.63H13.63V10.1H12.63ZM12.63 13.55V12.55H11.1V13.55V14.55H12.63V13.55ZM11.1 13.55V12.55C10.2273 12.55 9.41029 12.757 8.7608 13.2828L9.39 14.06L10.0192 14.8372C10.2097 14.683 10.5327 14.55 11.1 14.55V13.55ZM9.39 14.06L8.74235 13.2981C8.01696 13.9146 7.80195 14.8181 7.85146 15.734L8.85 15.68L9.84854 15.626C9.81805 15.0619 9.96304 14.8854 10.0376 14.8219L9.39 14.06ZM8.85 15.68L7.85205 15.744L8.15205 20.424L9.15 20.36L10.148 20.296L9.84795 15.616L8.85 15.68ZM9.15 20.36L8.15229 20.4276C8.21447 21.3447 7.95195 21.9858 7.42172 22.4752L8.1 23.21L8.77828 23.9448C9.80805 22.9942 10.2455 21.7352 10.1477 20.2924L9.15 20.36ZM8.1 23.21L7.42172 22.4752C6.87904 22.9761 6.06075 23.29 4.83 23.29V24.29V25.29C6.39925 25.29 7.76096 24.8839 8.77828 23.9448L8.1 23.21ZM4.83 24.29H5.83V24.08H4.83H3.83V24.29H4.83ZM4.83 24.08V25.08C6.0293 25.08 6.83585 25.3976 7.38174 25.9155L8.07 25.19L8.75826 24.4645C7.74415 23.5024 6.3907 23.08 4.83 23.08V24.08ZM8.07 25.19L7.40104 25.9333C7.94417 26.4221 8.21454 27.0686 8.15222 28.0035L9.15 28.07L10.1478 28.1365C10.2455 26.6714 9.79583 25.3979 8.73897 24.4467L8.07 25.19ZM9.15 28.07L8.15205 28.006L7.85205 32.686L8.85 32.75L9.84795 32.814L10.148 28.134L9.15 28.07ZM8.85 32.75L7.85046 32.7197C7.82369 33.6031 8.08437 34.4205 8.73125 35.035L9.42 34.31L10.1088 33.585C9.95563 33.4395 9.83631 33.2169 9.84954 32.7803L8.85 32.75ZM9.42 34.31L8.76921 35.0693C9.41445 35.6223 10.2265 35.85 11.1 35.85V34.85V33.85C10.5735 33.85 10.2655 33.7177 10.0708 33.5507L9.42 34.31ZM11.1 34.85V35.85H12.63V34.85V33.85H11.1V34.85ZM12.63 34.85H11.63V38.33H12.63H13.63V34.85H12.63ZM12.63 38.33V37.33H10.56V38.33V39.33H12.63V38.33ZM35.3466 38.33H34.3466V39.33H35.3466V38.33ZM35.3466 34.85V33.85H34.3466V34.85H35.3466ZM38.5566 34.31L39.2074 35.0693L39.2175 35.0605L39.2275 35.0515L38.5566 34.31ZM39.1266 32.75L40.1247 32.6895L40.1245 32.686L39.1266 32.75ZM38.8266 28.07L39.8245 28.006L39.8243 28.0035L38.8266 28.07ZM39.8766 25.19L40.5548 25.9248L40.5556 25.9241L39.8766 25.19ZM43.1466 24.08H44.1466V23.08H43.1466V24.08ZM43.1466 24.29V25.29H44.1466V24.29H43.1466ZM39.8766 23.21L39.1982 23.9449L39.2076 23.9533L39.8766 23.21ZM38.8266 20.36L39.8243 20.4276L39.8245 20.424L38.8266 20.36ZM39.1266 15.68L40.1246 15.744L40.1251 15.734L39.1266 15.68ZM38.5566 14.06L37.9089 14.8219L37.918 14.8297L37.9274 14.8372L38.5566 14.06ZM35.3466 13.55H34.3466V14.55H35.3466V13.55ZM35.3466 10.1V9.1H34.3466V10.1H35.3466ZM40.3566 10.73L39.9093 11.6245L39.9177 11.6286L40.3566 10.73ZM42.3066 12.53L41.4356 13.0213V13.0213L42.3066 12.53ZM42.8766 15.32L43.8746 15.3836L43.875 15.3755L42.8766 15.32ZM42.5766 20.03L43.5738 20.1048L43.5745 20.0936L42.5766 20.03ZM48.6066 22.49H49.6066V21.49H48.6066V22.49ZM48.6066 25.94V26.94H49.6066V25.94H48.6066ZM42.5766 28.43L43.5744 28.3643L43.5739 28.357L42.5766 28.43ZM42.8766 32.99L43.8751 32.9355L43.8744 32.9244L42.8766 32.99ZM42.3066 35.81L41.4355 35.3187L41.4303 35.3281L42.3066 35.81ZM40.3566 37.67L39.9011 36.7797L39.8926 36.7842L40.3566 37.67ZM35.3466 38.33H36.3466V34.85H35.3466H34.3466V38.33H35.3466ZM35.3466 34.85V35.85H36.8766V34.85V33.85H35.3466V34.85ZM36.8766 34.85V35.85C37.7501 35.85 38.5621 35.6223 39.2074 35.0693L38.5566 34.31L37.9058 33.5507C37.711 33.7177 37.403 33.85 36.8766 33.85V34.85ZM38.5566 34.31L39.2275 35.0515C39.9118 34.4324 40.1797 33.5958 40.1247 32.6895L39.1266 32.75L38.1284 32.8105C38.1535 33.2242 38.0413 33.4276 37.8857 33.5685L38.5566 34.31ZM39.1266 32.75L40.1245 32.686L39.8245 28.006L38.8266 28.07L37.8286 28.134L38.1286 32.814L39.1266 32.75ZM38.8266 28.07L39.8243 28.0035C39.7614 27.0599 40.0284 26.4108 40.5548 25.9248L39.8766 25.19L39.1983 24.4552C38.1648 25.4092 37.7317 26.6801 37.8288 28.1365L38.8266 28.07ZM39.8766 25.19L40.5556 25.9241C41.1253 25.3971 41.9486 25.08 43.1466 25.08V24.08V23.08C41.5845 23.08 40.2278 23.5029 39.1975 24.4559L39.8766 25.19ZM43.1466 24.08H42.1466V24.29H43.1466H44.1466V24.08H43.1466ZM43.1466 24.29V23.29C41.9417 23.29 41.1147 22.979 40.5455 22.4667L39.8766 23.21L39.2076 23.9533C40.2384 24.881 41.5914 25.29 43.1466 25.29V24.29ZM39.8766 23.21L40.5548 22.4752C40.0246 21.9858 39.7621 21.3447 39.8243 20.4276L38.8266 20.36L37.8289 20.2924C37.731 21.7352 38.1685 22.9942 39.1983 23.9448L39.8766 23.21ZM38.8266 20.36L39.8245 20.424L40.1245 15.744L39.1266 15.68L38.1286 15.616L37.8286 20.296L38.8266 20.36ZM39.1266 15.68L40.1251 15.734C40.1755 14.8022 39.9406 13.8938 39.1858 13.2828L38.5566 14.06L37.9274 14.8372C38.0126 14.9062 38.1577 15.0778 38.128 15.626L39.1266 15.68ZM38.5566 14.06L39.2042 13.2981C38.5661 12.7556 37.7458 12.55 36.8766 12.55V13.55V14.55C37.4473 14.55 37.7471 14.6844 37.9089 14.8219L38.5566 14.06ZM36.8766 13.55V12.55H35.3466V13.55V14.55H36.8766V13.55ZM35.3466 13.55H36.3466V10.1H35.3466H34.3466V13.55H35.3466ZM35.3466 10.1V11.1H37.4166V10.1V9.1H35.3466V10.1ZM37.4166 10.1V11.1C38.411 11.1 39.2325 11.286 39.9093 11.6244L40.3566 10.73L40.8038 9.83557C39.8006 9.334 38.6622 9.1 37.4166 9.1V10.1ZM40.3566 10.73L39.9177 11.6286C40.6089 11.9661 41.102 12.43 41.4356 13.0213L42.3066 12.53L43.1775 12.0387C42.6311 11.07 41.8242 10.3339 40.7954 9.83143L40.3566 10.73ZM42.3066 12.53L41.4356 13.0213C41.7638 13.6032 41.9297 14.3353 41.8781 15.2645L42.8766 15.32L43.875 15.3755C43.9434 14.1447 43.7293 13.0168 43.1775 12.0387L42.3066 12.53ZM42.8766 15.32L41.8786 15.2564L41.5786 19.9664L42.5766 20.03L43.5745 20.0936L43.8745 15.3836L42.8766 15.32ZM42.5766 20.03L41.5794 19.9552C41.5066 20.9252 41.7015 21.8557 42.3624 22.5497L43.0866 21.86L43.8107 21.1703C43.6716 21.0243 43.5265 20.7348 43.5738 20.1048L42.5766 20.03ZM43.0866 21.86L42.3624 22.5497C43.0335 23.2543 44.0112 23.49 45.0366 23.49V22.49V21.49C44.262 21.49 43.9396 21.3057 43.8107 21.1703L43.0866 21.86ZM45.0366 22.49V23.49H48.6066V22.49V21.49H45.0366V22.49ZM48.6066 22.49H47.6066V25.94H48.6066H49.6066V22.49H48.6066ZM48.6066 25.94V24.94H45.0366V25.94V26.94H48.6066V25.94ZM45.0366 25.94V24.94C44.0112 24.94 43.0335 25.1757 42.3624 25.8803L43.0866 26.57L43.8107 27.2597C43.9396 27.1243 44.262 26.94 45.0366 26.94V25.94ZM43.0866 26.57L42.3624 25.8803C41.6977 26.5783 41.5075 27.5221 41.5792 28.503L42.5766 28.43L43.5739 28.357C43.5257 27.6979 43.6754 27.4017 43.8107 27.2597L43.0866 26.57ZM42.5766 28.43L41.5787 28.4956L41.8787 33.0556L42.8766 32.99L43.8744 32.9244L43.5744 28.3644L42.5766 28.43ZM42.8766 32.99L41.878 33.0445C41.9301 33.998 41.7624 34.7393 41.4356 35.3187L42.3066 35.81L43.1775 36.3013C43.7307 35.3207 43.9431 34.182 43.8751 32.9355L42.8766 32.99ZM42.3066 35.81L41.4303 35.3281C41.0924 35.9426 40.5941 36.4252 39.9011 36.7798L40.3566 37.67L40.812 38.5602C41.839 38.0348 42.6407 37.2774 43.1828 36.2919L42.3066 35.81ZM40.3566 37.67L39.8926 36.7842C39.2195 37.1367 38.4042 37.33 37.4166 37.33V38.33V39.33C38.669 39.33 39.8136 39.0833 40.8206 38.5558L40.3566 37.67ZM37.4166 38.33V37.33H35.3466V38.33V39.33H37.4166V38.33Z" fill="black" mask="url(#path-1-outside-1_24_22)"/>
<g filter="url(#filter0_d_24_22)">
<path d="M34.9063 23.8211C35.0097 24.6093 34.0988 25.1352 33.3571 24.7155L12.1029 12.6898C11.3112 12.2419 11.4513 11.1546 12.3277 10.9461L23.4511 8.29906C23.6622 8.24882 23.8482 8.13726 23.982 7.98047L30.1027 0.812712C30.6687 0.149867 31.8456 0.486547 31.958 1.34347L34.9063 23.8211Z" fill="white"/>
<path d="M13.9319 12.0642L23.891 9.69452L24.0859 9.64042C24.4691 9.518 24.8124 9.31217 25.0871 9.03995L25.2189 8.89752L30.5656 2.63708L33.2342 22.9855L13.9319 12.0642Z" stroke="#FBCFE8" stroke-width="3"/>
</g>
<g filter="url(#filter1_d_24_22)">
<path d="M12.6561 23.0535C12.4844 22.2773 13.346 21.674 14.1214 22.0274L36.3429 32.1549C37.1706 32.5322 37.1258 33.6275 36.2709 33.9117L25.4205 37.5181C25.2146 37.5865 25.0391 37.7139 24.9194 37.8817L19.4467 45.5556C18.9407 46.2653 17.7389 46.0325 17.5522 45.1886L12.6561 23.0535Z" fill="#F3F3F3"/>
<path d="M34.5754 32.9376L24.8607 36.1663L24.6712 36.2371C24.3001 36.3925 23.9761 36.6275 23.7262 36.9226L23.6073 37.076L18.8266 43.7786L14.3947 23.7402L34.5754 32.9376Z" stroke="#A7F3D0" stroke-width="3"/>
</g>
</g>
<defs>
<filter id="filter0_d_24_22" x="-28.1695" y="-19.4128" width="102.836" height="103.904" filterUnits="userSpaceOnUse" color-interpolation-filters="sRGB">
<feFlood flood-opacity="0" result="BackgroundImageFix"/>
<feColorMatrix in="SourceAlpha" type="matrix" values="0 0 0 0 0 0 0 0 0 0 0 0 0 0 0 0 0 0 127 0" result="hardAlpha"/>
<feOffset dy="19.8759"/>
<feGaussianBlur stdDeviation="19.8759"/>
<feColorMatrix type="matrix" values="0 0 0 0 0 0 0 0 0 0 0 0 0 0 0 0 0 0 0.28 0"/>
<feBlend mode="normal" in2="BackgroundImageFix" result="effect1_dropShadow_24_22"/>
<feBlend mode="normal" in="SourceGraphic" in2="effect1_dropShadow_24_22" result="shape"/>
</filter>
<filter id="filter1_d_24_22" x="-27.1177" y="2.04807" width="103.808" height="103.556" filterUnits="userSpaceOnUse" color-interpolation-filters="sRGB">
<feFlood flood-opacity="0" result="BackgroundImageFix"/>
<feColorMatrix in="SourceAlpha" type="matrix" values="0 0 0 0 0 0 0 0 0 0 0 0 0 0 0 0 0 0 127 0" result="hardAlpha"/>
<feOffset dy="19.8759"/>
<feGaussianBlur stdDeviation="19.8759"/>
<feColorMatrix type="matrix" values="0 0 0 0 0 0 0 0 0 0 0 0 0 0 0 0 0 0 0.28 0"/>
<feBlend mode="normal" in2="BackgroundImageFix" result="effect1_dropShadow_24_22"/>
<feBlend mode="normal" in="SourceGraphic" in2="effect1_dropShadow_24_22" result="shape"/>
</filter>
<clipPath id="clip0_24_22">
<rect width="48" height="48" fill="white"/>
</clipPath>
</defs>
</svg>
